<svg xmlns="http://www.w3.org/2000/svg" viewBox="0 0 58.86 62.78"><title>Asset 3</title><g id="Layer_2" data-name="Layer 2"><g id="Layer_1-2" data-name="Layer 1"><path d="M0,54.19c0,.12,0,.24,0,.36s.05.33.08.49,0,.24.07.36.08.35.13.52,0,.19.08.29.17.49.27.72a2.92,2.92,0,0,0,.14.31,3.55,3.55,0,0,0,.21.44,3.07,3.07,0,0,0,.17.31c.08.15.17.3.26.44s.11.17.17.26.3.41.46.61l.18.21c.12.14.24.27.37.4l.22.23.39.35.23.2c.2.16.41.32.63.47l.16.1.53.32.28.15.47.22.3.14.11,0H6a9.56,9.56,0,0,0,3.47.66,9.44,9.44,0,0,0,9.44-9.43V9.43a9.4,9.4,0,0,0-4.5-8h0l-.31-.18-.22-.13c-.23-.12-.46-.23-.7-.33L13,.69,12.36.47,12.17.41c-.26-.08-.53-.15-.8-.21l-.14,0c-.24,0-.47-.08-.71-.11l-.23,0C10,0,9.73,0,9.44,0h0A9.32,9.32,0,0,0,4.25,1.56l-.09.05-.09.07A9.41,9.41,0,0,0,0,9.43V53.35c0,.07,0,.13,0,.2C0,53.77,0,54,0,54.19Z"/><path d="M40,54.22c0,.09,0,.18,0,.28a5.81,5.81,0,0,0,.09.58,2.93,2.93,0,0,0,.05.29c0,.22.11.43.17.65a1.54,1.54,0,0,0,0,.17,7.94,7.94,0,0,0,.28.77c0,.07.07.15.1.23s.16.35.25.52l.14.26c.1.17.2.34.31.5a1.37,1.37,0,0,0,.13.2c.15.22.31.44.47.64l.16.17a5.34,5.34,0,0,0,.39.44l.22.22.39.35.23.2.58.43.25.16.48.29.32.17.41.2.36.16.08,0h0a9.47,9.47,0,0,0,3.46.66h0a9.44,9.44,0,0,0,9.44-9.43V9.43a9.43,9.43,0,0,0-4.5-8h0l-.35-.2-.17-.1c-.23-.12-.47-.24-.71-.34L53,.69,52.37.47,52.16.41c-.26-.08-.53-.15-.8-.21l-.15,0-.7-.1-.22,0c-.29,0-.57,0-.86,0h0A9.43,9.43,0,0,0,40,9.43v44C40,53.66,40,53.94,40,54.22Z"/></g></g></svg>