<svg xmlns="http://www.w3.org/2000/svg" viewBox="0 0 95.94 62.78"><title>Asset 4</title><g id="Layer_2" data-name="Layer 2"><g id="Layer_1-2" data-name="Layer 1"><path d="M58.32,47a25.31,25.31,0,0,0,0-31.23,2.62,2.62,0,0,0-.44-.44h0a2.2,2.2,0,0,0-.43-.27L57.31,15,57,14.86l-.19,0a1.65,1.65,0,0,0-.32-.06H56.2l-.21,0-.25,0-.31.08-.21.06a2.58,2.58,0,0,0-.37.19l-.12.06a2.54,2.54,0,0,0-.45.36A2.74,2.74,0,0,0,54,19l.06.08a19.91,19.91,0,0,1,0,24.54.61.61,0,0,0-.07.1,1.89,1.89,0,0,0-.19.3,1.51,1.51,0,0,0-.09.18c0,.09-.07.17-.1.26s0,.12,0,.18a2.33,2.33,0,0,0,0,.28s0,.11,0,.16,0,.14,0,.21,0,.06,0,.08l0,.25,0,.25a2.58,2.58,0,0,0,.08.26,1.72,1.72,0,0,1,.07.21,11.57,11.57,0,0,1,.25.46l.17.21c.05.06.1.13.16.19a2.12,2.12,0,0,0,.44.35l.08,0a2.33,2.33,0,0,0,.39.19l.12.05a1.89,1.89,0,0,0,.41.1l.11,0,.05,0h0A2.71,2.71,0,0,0,58.32,47Z"/><path d="M71.39,54.32a35.51,35.51,0,0,0,0-45.87A2.64,2.64,0,0,0,71,8.09h0l0,0L70.86,8a3,3,0,0,0-.33-.21l-.16-.07L70,7.59l-.18,0a1.86,1.86,0,0,0-.34,0H69l-.2,0-.31.08-.2.07L68,7.83l-.2.11a2.65,2.65,0,0,0-.26.21l-.16.13h0a2.7,2.7,0,0,0-.16,3.65,30.11,30.11,0,0,1,.74,38c-.24.31-.49.61-.74.91q-.17.21-.3.42a2.7,2.7,0,0,0,.46,3.23h0s0,0,0,0a1.74,1.74,0,0,0,.37.3l.15.09a1.91,1.91,0,0,0,.32.16l.15.06a2.66,2.66,0,0,0,.38.1l.1,0,.08,0h0A2.74,2.74,0,0,0,71.39,54.32Z"/><path d="M84.49,61.67a45.78,45.78,0,0,0,0-60.57,2.45,2.45,0,0,0-.34-.31h0s0,0,0,0L83.87.6,83.68.48l-.25-.1L83.19.3,83,.25l-.28,0h-.22l-.31,0L82,.25l-.34.1L81.45.4a3.24,3.24,0,0,0-.37.19L81,.64a2.36,2.36,0,0,0-.43.35h0a2.68,2.68,0,0,0-.79,1.87,2.76,2.76,0,0,0,.68,1.85c.86,1,1.65,2,2.41,3a40.15,40.15,0,0,1,3.61,6c.31.64.61,1.28.88,1.93a40.43,40.43,0,0,1,1.8,26.19,38.91,38.91,0,0,1-1.8,5.23q-.6,1.44-1.32,2.82a40.55,40.55,0,0,1-5.58,8.15,2.78,2.78,0,0,0-.68,1.79,2.67,2.67,0,0,0,.79,1.93h0a.1.1,0,0,0,0,0,2.45,2.45,0,0,0,.35.29l.16.09a2,2,0,0,0,.29.15l.19.07.28.08.22,0,.06,0h0A2.68,2.68,0,0,0,84.49,61.67Z"/><path d="M.07,48.4a3.13,3.13,0,0,0,.16.6l0,0a3.43,3.43,0,0,0,.25.55l0,0a3.69,3.69,0,0,0,.8,1h0a2.54,2.54,0,0,0,.5.36l0,0a3.66,3.66,0,0,0,.56.28h0a3.92,3.92,0,0,0,1.37.26H21.27a3.83,3.83,0,0,1,1.82.45l19.1,10.33A3.81,3.81,0,0,0,47.82,59V3.81A3.76,3.76,0,0,0,46.1.64h0L46,.59a1.18,1.18,0,0,0-.19-.11A1.71,1.71,0,0,0,45.6.35L45.39.27,45.15.18,44.92.12,44.68.06l-.26,0-.23,0h-.5l-.33,0-.17,0-.41.13-.09,0a3.22,3.22,0,0,0-.5.23L38.33,2.54,23.08,10.79a3.54,3.54,0,0,1-.53.23,3.71,3.71,0,0,1-1.28.23H3.81A3.81,3.81,0,0,0,0,15.06V47.71a3.49,3.49,0,0,0,.06.65A.06.06,0,0,0,.07,48.4Z"/></g></g></svg>